<svg xmlns='http://www.w3.org/2000/svg' version='1.1' width='794px' height='622px'><svg xmlns="http://www.w3.org/2000/svg" style="position: fixed; left: 1000vw;" x="7940" y="0"><text/></svg><svg xmlns="http://www.w3.org/2000/svg" id="graphic" fill="currentColor" font-family="Noto Sans JP" width="794" height="511.8046875" class="ready" x="0" y="76.1953125"><g class="facets"><g class="fl-facets"><g class="fl-facet" transform="translate(90.70690155029297, 0)" opacity="1"><rect class="fl-facet-rect" width="617.7314239501953" height="443.0796875" fill="none"/><rect class="fl-facet-primary-rect" width="617.7314239501953" height="443.0796875" y="0" fill="none"/><g class="fl-facet-title"><rect class="fl-facet-title-bg" height="0" width="0" fill="rgb(238, 238, 238)" x="0" opacity="0"/><text class="fl-facet-title-text" font-size="14" font-weight="600" transform="translate(0, 14.700000000000001)" opacity="0" text-anchor="start"><tspan x="0" y="0" dx="0" text-anchor="start"/></text></g><g class="fl-facet-primary" transform="translate(0, 0)"><g class="fl-chart ready"><rect class="fl-chart-debug-rectangle" x="0" y="0" style="stroke-width: 1px; fill: none; display: none; stroke: red;" width="617.7314239501953" height="443.0796875"/><clipPath class="fl-data-clip-path" id="fl-axes-1-clip-path"><rect x="0" y="23" width="617.7314239501953" height="420.0796875"/></clipPath><clipPath class="fl-grid-clip-path" id="fl-axes-1-grid-clip-path"><rect x="-1.5" y="21.5" width="620.7314239501953" height="423.0796875"/></clipPath><g class="fl-chart-background"><rect class="fl-chart-fill" x="0" y="23" width="617.7314239501953" height="420.0796875" fill="none"/><image class="fl-chart-image" x="0" y="23" width="617.7314239501953" height="420.0796875" preserveAspectRatio="none"/><rect class="fl-chart-interaction" x="0" y="23" width="617.7314239501953" height="420.0796875" style="opacity: 0;"/></g><g class="fl-data-background" clip-path="url(#fl-axes-1-clip-path)"/><g class="fl-gridlines" clip-path="url(#fl-axes-1-grid-clip-path)" style="pointer-events: none;"><g class="fl-gridlines-vertical"/><g class="fl-gridlines-horizontal"/></g><g class="fl-axes" aria-hidden="true"><g class="fl-x-axes"><g class="fl-axis fl-x-axis fl-bottom-axis"><g class="fl-axis-line"><line x1="0" y1="443.0796875" y2="443.0796875" x2="617.7314239501953" style="shape-rendering: crispedges; stroke-linecap: square; stroke-width: 0.5; opacity: 1; stroke: rgb(34, 34, 34);"/></g><g class="fl-axis-ticks"><g transform="translate(5.935972244677267,443.0796875)" style="opacity: 1;"><line y2="7" style="stroke: rgb(34, 34, 34); stroke-width: 0.5;"/><text text-anchor="middle" transform="translate(0,22.995000000000005)" style="user-select: none; cursor: default; fill: rgb(34, 34, 34); font-size: 15.75px; font-weight: normal;"><tspan x="0" dy="0">1973</tspan></text></g><g transform="translate(148.49688374287157,443.0796875)" style="opacity: 1;"><line y2="7" style="stroke: rgb(34, 34, 34); stroke-width: 0.5;"/><text text-anchor="middle" transform="translate(0,22.995000000000005)" style="user-select: none; cursor: default; fill: rgb(34, 34, 34); font-size: 15.75px; font-weight: normal;"><tspan x="0" dy="0">1985</tspan></text></g><g transform="translate(326.67362870912945,443.0796875)" style="opacity: 1;"><line y2="7" style="stroke: rgb(34, 34, 34); stroke-width: 0.5;"/><text text-anchor="middle" transform="translate(0,22.995000000000005)" style="user-select: none; cursor: default; fill: rgb(34, 34, 34); font-size: 15.75px; font-weight: normal;"><tspan x="0" dy="0">2000</tspan></text></g><g transform="translate(504.88289955070064,443.0796875)" style="opacity: 1;"><line y2="7" style="stroke: rgb(34, 34, 34); stroke-width: 0.5;"/><text text-anchor="middle" transform="translate(0,22.995000000000005)" style="user-select: none; cursor: default; fill: rgb(34, 34, 34); font-size: 15.75px; font-weight: normal;"><tspan x="0" dy="0">2015</tspan></text></g><g transform="translate(611.7954517055181,443.0796875)" style="opacity: 1;"><line y2="7" style="stroke: rgb(34, 34, 34); stroke-width: 0.5;"/><text text-anchor="middle" transform="translate(0,22.995000000000005)" style="user-select: none; cursor: default; fill: rgb(34, 34, 34); font-size: 15.75px; font-weight: normal;"><tspan x="0" dy="0">2024</tspan></text></g></g><g class="fl-axis-title"><text text-anchor="middle" x="308.86571197509767" y="480.40468749999997" dy="15.75" style="opacity: 1; user-select: none; cursor: default; fill: rgb(34, 34, 34); font-size: 15.75px; font-weight: normal;">Year</text></g></g><g class="fl-axis fl-x-axis fl-top-axis"><g class="fl-axis-line"/><g class="fl-axis-ticks"/><g class="fl-axis-title"/></g></g><g class="fl-y-axes"><g class="fl-axis fl-y-axis fl-left-axis"><g class="fl-axis-line"/><g class="fl-axis-ticks"><g transform="translate(0,443.0796875)" style="opacity: 1;"><line x2="-50.90690307617187" style="stroke: rgb(34, 34, 34); stroke-width: 1;"/><text text-anchor="end" transform="translate(-42.160595703125,-4.725)" style="user-select: none; cursor: default; fill: rgb(34, 34, 34); font-size: 15.75px; font-weight: normal;"><tspan x="0" dy="0">0</tspan></text></g><g transform="translate(0,93.01328124999999)" style="opacity: 1;"><line x2="-50.90690307617187" style="stroke: rgb(34, 34, 34); stroke-width: 1;"/><text text-anchor="end" transform="translate(-2.8000000000000003,-4.725)" style="user-select: none; cursor: default; fill: rgb(34, 34, 34); font-size: 15.75px; font-weight: normal;"><tspan x="0" dy="0">10,000</tspan></text></g><g transform="translate(0,268.0464843749999)" style="opacity: 1;"><line x2="-50.90690307617187" style="stroke: rgb(34, 34, 34); stroke-width: 1;"/><text text-anchor="end" transform="translate(-15.921673583984376,-4.725)" style="user-select: none; cursor: default; fill: rgb(34, 34, 34); font-size: 15.75px; font-weight: normal;"><tspan x="0" dy="0">5000</tspan></text></g></g><g class="fl-axis-title"><text transform="translate(0,233.03984375) rotate(-90,0,0) translate(0,-64.50440307617187)" text-anchor="middle" style="opacity: 1; user-select: none; cursor: default; font-size: 15.75px; fill: rgb(34, 34, 34); font-weight: normal;">Students (thousands)</text></g></g><g class="fl-axis fl-y-axis fl-right-axis"><g class="fl-axis-line"><line x1="617.7314239501953" x2="617.7314239501953" y1="443.0796875" y2="23" style="shape-rendering: crispedges; stroke-linecap: square; stroke-width: 1.5; opacity: 1; stroke: rgb(238, 238, 238);"/></g><g class="fl-axis-ticks"><g transform="translate(617.7314239501953,243.0417410714286)" style="opacity: 1;" text-anchor="start"><line x2="46.26167297363281" style="stroke: rgb(238, 238, 238); stroke-width: 1.5;"/><text transform="translate(3.5,-4.2)" style="user-select: none; cursor: default; fill: rgb(74, 74, 74); font-size: 14px; font-weight: normal;"><tspan x="0" dy="0">20,000</tspan></text></g><g transform="translate(617.7314239501953,43.003794642857166)" style="opacity: 1;" text-anchor="start"><line x2="46.26167297363281" style="stroke: rgb(238, 238, 238); stroke-width: 1.5;"/><text transform="translate(3.5,-4.2)" style="user-select: none; cursor: default; fill: rgb(74, 74, 74); font-size: 14px; font-weight: normal;"><tspan x="0" dy="0">25,000</tspan></text></g><g transform="translate(617.7314239501953,443.0796875)" style="opacity: 1;" text-anchor="start"><line x2="46.26167297363281" style="stroke: rgb(238, 238, 238); stroke-width: 1.5;"/><text transform="translate(3.5,-4.2)" style="user-select: none; cursor: default; fill: rgb(74, 74, 74); font-size: 14px; font-weight: normal;"><tspan x="0" dy="0">15,000</tspan></text></g></g><g class="fl-axis-title"><text transform="translate(617.7314239501953,233.03984375) rotate(-90,0,0) translate(0,67.75167297363281)" text-anchor="middle" style="opacity: 1; user-select: none; cursor: default; font-size: 15.4px; fill: rgb(74, 74, 74); font-weight: normal;">Elementary Schools</text></g></g></g></g><g class="fl-data-foreground" clip-path="url(#fl-axes-1-clip-path)"/></g></g></g></g></g><g class="annotations below"/><g id="areas"/><g id="lines"><g class="series"><clipPath id="clip-0-0"><rect width="0" x="0" y="20.2" height="425.6796875"/></clipPath><path class="outline" opacity="1" pointer-events="none" fill="none" stroke-width="0" transform="translate(90.70690307617187,0)" clip-path="url(#clip-0-0)" clip-path-id="0-0" d="M5.936,99.436C9.893,96.27,13.851,93.105,17.808,89.906C21.765,86.706,25.723,83.282,29.68,80.241C33.637,77.2,37.594,74.31,41.552,71.66C45.52,69.002,49.488,67.459,53.456,64.32C57.414,61.19,61.371,57.588,65.328,52.865C69.286,48.142,73.243,39.949,77.2,35.984C81.157,32.018,85.115,30.795,89.072,29.071C93.04,27.343,97.008,25.638,100.977,25.638C104.934,25.638,108.891,25.908,112.849,26.447C116.806,26.987,120.763,29.57,124.72,32.121C128.678,34.672,132.635,38.005,136.592,41.756C140.561,45.517,144.529,50,148.497,54.668C152.454,59.323,156.412,64.649,160.369,69.72C164.326,74.79,168.283,80.464,172.241,85.09C176.198,89.717,180.155,93.864,184.113,97.476C188.081,101.098,192.049,103.868,196.017,106.784C199.975,109.692,203.932,112.331,207.889,114.952C211.846,117.573,215.804,120.023,219.761,122.509C223.718,124.995,227.676,127.603,231.633,129.867C235.601,132.138,239.569,133.982,243.537,136.111C247.495,138.234,251.452,140.296,255.409,142.622C259.367,144.948,263.324,147.281,267.281,150.065C271.239,152.85,275.196,156.329,279.153,159.329C283.121,162.337,287.09,165.507,291.058,168.089C295.015,170.664,298.972,172.734,302.93,174.805C306.887,176.877,310.844,178.783,314.802,180.519C318.759,182.254,322.716,184.032,326.674,185.218C330.642,186.407,334.61,186.899,338.578,187.639C342.535,188.377,346.493,189.365,350.45,189.655C354.407,189.945,358.365,189.866,362.322,190.09C366.279,190.314,370.237,190.918,374.194,190.999C378.162,191.08,382.13,191.042,386.098,191.121C390.056,191.2,394.013,191.238,397.97,191.472C401.928,191.707,405.885,193.123,409.842,193.382C413.8,193.641,417.757,193.511,421.714,193.77C425.682,194.03,429.651,195.056,433.619,195.807C437.576,196.555,441.533,197.236,445.491,198.265C449.448,199.294,453.405,200.644,457.363,201.979C461.32,203.313,465.277,205.047,469.235,206.273C473.203,207.503,477.171,208.382,481.139,209.343C485.096,210.302,489.054,211.255,493.011,212.036C496.968,212.816,500.926,213.348,504.883,214.028C508.84,214.707,512.798,215.563,516.755,216.114C520.723,216.666,524.691,217.009,528.659,217.334C532.617,217.658,536.574,217.594,540.531,218.062C544.489,218.529,548.446,219.396,552.403,220.138C556.361,220.88,560.318,221.668,564.275,222.514C568.243,223.362,572.211,224.347,576.18,225.22C580.137,226.09,584.094,226.73,588.052,227.743C592.009,228.757,595.966,230.078,599.924,231.301C603.881,232.523,607.838,233.801,611.795,235.08"/><path class="line" opacity="1" pointer-events="none" fill="none" stroke="#d95f02" stroke-width="2.8000000000000003" transform="translate(90.70690307617187,0)" clip-path="url(#clip-0-0)" clip-path-id="0-0" d="M5.936,99.436C9.893,96.27,13.851,93.105,17.808,89.906C21.765,86.706,25.723,83.282,29.68,80.241C33.637,77.2,37.594,74.31,41.552,71.66C45.52,69.002,49.488,67.459,53.456,64.32C57.414,61.19,61.371,57.588,65.328,52.865C69.286,48.142,73.243,39.949,77.2,35.984C81.157,32.018,85.115,30.795,89.072,29.071C93.04,27.343,97.008,25.638,100.977,25.638C104.934,25.638,108.891,25.908,112.849,26.447C116.806,26.987,120.763,29.57,124.72,32.121C128.678,34.672,132.635,38.005,136.592,41.756C140.561,45.517,144.529,50,148.497,54.668C152.454,59.323,156.412,64.649,160.369,69.72C164.326,74.79,168.283,80.464,172.241,85.09C176.198,89.717,180.155,93.864,184.113,97.476C188.081,101.098,192.049,103.868,196.017,106.784C199.975,109.692,203.932,112.331,207.889,114.952C211.846,117.573,215.804,120.023,219.761,122.509C223.718,124.995,227.676,127.603,231.633,129.867C235.601,132.138,239.569,133.982,243.537,136.111C247.495,138.234,251.452,140.296,255.409,142.622C259.367,144.948,263.324,147.281,267.281,150.065C271.239,152.85,275.196,156.329,279.153,159.329C283.121,162.337,287.09,165.507,291.058,168.089C295.015,170.664,298.972,172.734,302.93,174.805C306.887,176.877,310.844,178.783,314.802,180.519C318.759,182.254,322.716,184.032,326.674,185.218C330.642,186.407,334.61,186.899,338.578,187.639C342.535,188.377,346.493,189.365,350.45,189.655C354.407,189.945,358.365,189.866,362.322,190.09C366.279,190.314,370.237,190.918,374.194,190.999C378.162,191.08,382.13,191.042,386.098,191.121C390.056,191.2,394.013,191.238,397.97,191.472C401.928,191.707,405.885,193.123,409.842,193.382C413.8,193.641,417.757,193.511,421.714,193.77C425.682,194.03,429.651,195.056,433.619,195.807C437.576,196.555,441.533,197.236,445.491,198.265C449.448,199.294,453.405,200.644,457.363,201.979C461.32,203.313,465.277,205.047,469.235,206.273C473.203,207.503,477.171,208.382,481.139,209.343C485.096,210.302,489.054,211.255,493.011,212.036C496.968,212.816,500.926,213.348,504.883,214.028C508.84,214.707,512.798,215.563,516.755,216.114C520.723,216.666,524.691,217.009,528.659,217.334C532.617,217.658,536.574,217.594,540.531,218.062C544.489,218.529,548.446,219.396,552.403,220.138C556.361,220.88,560.318,221.668,564.275,222.514C568.243,223.362,572.211,224.347,576.18,225.22C580.137,226.09,584.094,226.73,588.052,227.743C592.009,228.757,595.966,230.078,599.924,231.301C603.881,232.523,607.838,233.801,611.795,235.08"/></g></g><g id="data-points"><g class="series" transform="translate(90.70690307617187,0)" clip-path="url(#fl-axes-1-clip-path)"><clipPath id="clip-data-points-1"><rect x="-3.5" y="20.2" height="422.8796875" width="621.2314239501953"/></clipPath><path class="data-point" data-type="column" fill-opacity="0.9" opacity="0.9" fill="#d95f02" stroke-width="0" stroke-opacity="0" d="M1.1871944489355055,443.0796875L10.68475004041903,443.0796875L10.68475004041903,99.43573956562501L1.1871944489355055,99.43573956562501Z" transform="translate(0, 0)" tabindex="0" role="img" aria-roledescription="data point" aria-label="Elementary Students, 1973: 9816.54" visibility="visible" id="point-1-0"/><path class="data-point" data-type="column" fill-opacity="0.9" opacity="0.9" fill="#d95f02" stroke-width="0" stroke-opacity="0" d="M13.059138938290037,443.0796875L22.55669452977356,443.0796875L22.55669452977356,89.90553172187502L13.059138938290037,89.90553172187502Z" transform="translate(0, 0)" tabindex="0" role="img" aria-roledescription="data point" aria-label="Elementary Students, 1974: 10,088.78" visibility="visible" id="point-1-1"/><path class="data-point" data-type="column" fill-opacity="0.9" opacity="0.9" fill="#d95f02" stroke-width="0" stroke-opacity="0" d="M24.93108342764457,443.0796875L34.42863901912809,443.0796875L34.42863901912809,80.24124844453124L24.93108342764457,80.24124844453124Z" transform="translate(0, 0)" tabindex="0" role="img" aria-roledescription="data point" aria-label="Elementary Students, 1975: 10,364.85" visibility="visible" id="point-1-2"/><path class="data-point" data-type="column" fill-opacity="0.9" opacity="0.9" fill="#d95f02" stroke-width="0" stroke-opacity="0" d="M36.803027916999106,443.0796875L46.30058350848263,443.0796875L46.30058350848263,71.65975556835936L36.803027916999106,71.65975556835936Z" transform="translate(0, 0)" tabindex="0" role="img" aria-roledescription="data point" aria-label="Elementary Students, 1976: 10,609.99" visibility="visible" id="point-1-3"/><path class="data-point" data-type="column" fill-opacity="0.9" opacity="0.9" fill="#d95f02" stroke-width="0" stroke-opacity="0" d="M48.70749828166694,443.0796875L58.20505387315047,443.0796875L58.20505387315047,64.32005325507814L48.70749828166694,64.32005325507814Z" transform="translate(0, 0)" tabindex="0" role="img" aria-roledescription="data point" aria-label="Elementary Students, 1977: 10,819.65" visibility="visible" id="point-1-4"/><path class="data-point" data-type="column" fill-opacity="0.9" opacity="0.9" fill="#d95f02" stroke-width="0" stroke-opacity="0" d="M60.579442771021476,443.0796875L70.076998362505,443.0796875L70.076998362505,52.86507528984373L60.579442771021476,52.86507528984373Z" transform="translate(0, 0)" tabindex="0" role="img" aria-roledescription="data point" aria-label="Elementary Students, 1978: 11,146.87" visibility="visible" id="point-1-5"/><path class="data-point" data-type="column" fill-opacity="0.9" opacity="0.9" fill="#d95f02" stroke-width="0" stroke-opacity="0" d="M72.45138726037601,443.0796875L81.94894285185953,443.0796875L81.94894285185953,35.983612941406236L72.45138726037601,35.983612941406236Z" transform="translate(0, 0)" tabindex="0" role="img" aria-roledescription="data point" aria-label="Elementary Students, 1979: 11,629.11" visibility="visible" id="point-1-6"/><path class="data-point" data-type="column" fill-opacity="0.9" opacity="0.9" fill="#d95f02" stroke-width="0" stroke-opacity="0" d="M84.32333174973054,443.0796875L93.82088734121406,443.0796875L93.82088734121406,29.071096663671852L84.32333174973054,29.071096663671852Z" transform="translate(0, 0)" tabindex="0" role="img" aria-roledescription="data point" aria-label="Elementary Students, 1980: 11,826.57" visibility="visible" id="point-1-7"/><path class="data-point" data-type="column" fill-opacity="0.9" opacity="0.9" fill="#d95f02" stroke-width="0" stroke-opacity="0" d="M96.22780211439837,443.0796875L105.72535770588189,443.0796875L105.72535770588189,25.637645351171884L96.22780211439837,25.637645351171884Z" transform="translate(0, 0)" tabindex="0" role="img" aria-roledescription="data point" aria-label="Elementary Students, 1981: 11,924.65" visibility="visible" id="point-1-8"/><path class="data-point" data-type="column" fill-opacity="0.9" opacity="0.9" fill="#d95f02" stroke-width="0" stroke-opacity="0" d="M108.0997466037529,443.0796875L117.59730219523642,443.0796875L117.59730219523642,26.447453968749965L108.0997466037529,26.447453968749965Z" transform="translate(0, 0)" tabindex="0" role="img" aria-roledescription="data point" aria-label="Elementary Students, 1982: 11,901.52" visibility="visible" id="point-1-9"/><path class="data-point" data-type="column" fill-opacity="0.9" opacity="0.9" fill="#d95f02" stroke-width="0" stroke-opacity="0" d="M119.97169109310745,443.0796875L129.46924668459098,443.0796875L129.46924668459098,32.120910201562545L119.97169109310745,32.120910201562545Z" transform="translate(0, 0)" tabindex="0" role="img" aria-roledescription="data point" aria-label="Elementary Students, 1983: 11,739.45" visibility="visible" id="point-1-10"/><path class="data-point" data-type="column" fill-opacity="0.9" opacity="0.9" fill="#d95f02" stroke-width="0" stroke-opacity="0" d="M131.84363558246196,443.0796875L141.34119117394548,443.0796875L141.34119117394548,41.7558229074219L131.84363558246196,41.7558229074219Z" transform="translate(0, 0)" tabindex="0" role="img" aria-roledescription="data point" aria-label="Elementary Students, 1984: 11,464.22" visibility="visible" id="point-1-11"/><path class="data-point" data-type="column" fill-opacity="0.9" opacity="0.9" fill="#d95f02" stroke-width="0" stroke-opacity="0" d="M143.7481059471298,443.0796875L153.24566153861332,443.0796875L153.24566153861332,54.667987295312514L143.7481059471298,54.667987295312514Z" transform="translate(0, 0)" tabindex="0" role="img" aria-roledescription="data point" aria-label="Elementary Students, 1985: 11,095.37" visibility="visible" id="point-1-12"/><path class="data-point" data-type="column" fill-opacity="0.9" opacity="0.9" fill="#d95f02" stroke-width="0" stroke-opacity="0" d="M155.62005043648432,443.0796875L165.11760602796784,443.0796875L165.11760602796784,69.71972255156246L155.62005043648432,69.71972255156246Z" transform="translate(0, 0)" tabindex="0" role="img" aria-roledescription="data point" aria-label="Elementary Students, 1986: 10,665.4" visibility="visible" id="point-1-13"/><path class="data-point" data-type="column" fill-opacity="0.9" opacity="0.9" fill="#d95f02" stroke-width="0" stroke-opacity="0" d="M167.49199492583887,443.0796875L176.98955051732239,443.0796875L176.98955051732239,85.09047332382809L167.49199492583887,85.09047332382809Z" transform="translate(0, 0)" tabindex="0" role="img" aria-roledescription="data point" aria-label="Elementary Students, 1987: 10,226.32" visibility="visible" id="point-1-14"/><path class="data-point" data-type="column" fill-opacity="0.9" opacity="0.9" fill="#d95f02" stroke-width="0" stroke-opacity="0" d="M179.36393941519336,443.0796875L188.86149500667688,443.0796875L188.86149500667688,97.47592779687497L179.36393941519336,97.47592779687497Z" transform="translate(0, 0)" tabindex="0" role="img" aria-roledescription="data point" aria-label="Elementary Students, 1988: 9872.52" visibility="visible" id="point-1-15"/><path class="data-point" data-type="column" fill-opacity="0.9" opacity="0.9" fill="#d95f02" stroke-width="0" stroke-opacity="0" d="M191.26840977986123,443.0796875L200.76596537134475,443.0796875L200.76596537134475,106.78394849257808L191.26840977986123,106.78394849257808Z" transform="translate(0, 0)" tabindex="0" role="img" aria-roledescription="data point" aria-label="Elementary Students, 1989: 9606.63" visibility="visible" id="point-1-16"/><path class="data-point" data-type="column" fill-opacity="0.9" opacity="0.9" fill="#d95f02" stroke-width="0" stroke-opacity="0" d="M203.14035426921575,443.0796875L212.63790986069927,443.0796875L212.63790986069927,114.95211796289061L203.14035426921575,114.95211796289061Z" transform="translate(0, 0)" tabindex="0" role="img" aria-roledescription="data point" aria-label="Elementary Students, 1990: 9373.3" visibility="visible" id="point-1-17"/><path class="data-point" data-type="column" fill-opacity="0.9" opacity="0.9" fill="#d95f02" stroke-width="0" stroke-opacity="0" d="M215.0122987585703,443.0796875L224.5098543500538,443.0796875L224.5098543500538,122.50886144804687L215.0122987585703,122.50886144804687Z" transform="translate(0, 0)" tabindex="0" role="img" aria-roledescription="data point" aria-label="Elementary Students, 1991: 9157.43" visibility="visible" id="point-1-18"/><path class="data-point" data-type="column" fill-opacity="0.9" opacity="0.9" fill="#d95f02" stroke-width="0" stroke-opacity="0" d="M226.88424324792484,443.0796875L236.38179883940836,443.0796875L236.38179883940836,129.86736232734376L226.88424324792484,129.86736232734376Z" transform="translate(0, 0)" tabindex="0" role="img" aria-roledescription="data point" aria-label="Elementary Students, 1992: 8947.23" visibility="visible" id="point-1-19"/><path class="data-point" data-type="column" fill-opacity="0.9" opacity="0.9" fill="#d95f02" stroke-width="0" stroke-opacity="0" d="M238.78871361259266,443.0796875L248.28626920407618,443.0796875L248.28626920407618,136.11062164960939L238.78871361259266,136.11062164960939Z" transform="translate(0, 0)" tabindex="0" role="img" aria-roledescription="data point" aria-label="Elementary Students, 1993: 8768.88" visibility="visible" id="point-1-20"/><path class="data-point" data-type="column" fill-opacity="0.9" opacity="0.9" fill="#d95f02" stroke-width="0" stroke-opacity="0" d="M250.66065810194718,443.0796875L260.1582136934307,443.0796875L260.1582136934307,142.62220687226568L250.66065810194718,142.62220687226568Z" transform="translate(0, 0)" tabindex="0" role="img" aria-roledescription="data point" aria-label="Elementary Students, 1994: 8582.87" visibility="visible" id="point-1-21"/><path class="data-point" data-type="column" fill-opacity="0.9" opacity="0.9" fill="#d95f02" stroke-width="0" stroke-opacity="0" d="M262.5326025913017,443.0796875L272.03015818278527,443.0796875L272.03015818278527,150.0654938351563L262.5326025913017,150.0654938351563Z" transform="translate(0, 0)" tabindex="0" role="img" aria-roledescription="data point" aria-label="Elementary Students, 1995: 8370.25" visibility="visible" id="point-1-22"/><path class="data-point" data-type="column" fill-opacity="0.9" opacity="0.9" fill="#d95f02" stroke-width="0" stroke-opacity="0" d="M274.40454708065624,443.0796875L283.9021026721398,443.0796875L283.9021026721398,159.32884605742186L274.40454708065624,159.32884605742186Z" transform="translate(0, 0)" tabindex="0" role="img" aria-roledescription="data point" aria-label="Elementary Students, 1996: 8105.63" visibility="visible" id="point-1-23"/><path class="data-point" data-type="column" fill-opacity="0.9" opacity="0.9" fill="#d95f02" stroke-width="0" stroke-opacity="0" d="M286.3090174453241,443.0796875L295.80657303680766,443.0796875L295.80657303680766,168.08897782070312L286.3090174453241,168.08897782070312Z" transform="translate(0, 0)" tabindex="0" role="img" aria-roledescription="data point" aria-label="Elementary Students, 1997: 7855.39" visibility="visible" id="point-1-24"/><path class="data-point" data-type="column" fill-opacity="0.9" opacity="0.9" fill="#d95f02" stroke-width="0" stroke-opacity="0" d="M298.18096193467863,443.0796875L307.6785175261622,443.0796875L307.6785175261622,174.80514185117184L298.18096193467863,174.80514185117184Z" transform="translate(0, 0)" tabindex="0" role="img" aria-roledescription="data point" aria-label="Elementary Students, 1998: 7663.53" visibility="visible" id="point-1-25"/><path class="data-point" data-type="column" fill-opacity="0.9" opacity="0.9" fill="#d95f02" stroke-width="0" stroke-opacity="0" d="M310.05290642403315,443.0796875L319.5504620155167,443.0796875L319.5504620155167,180.51878570742184L310.05290642403315,180.51878570742184Z" transform="translate(0, 0)" tabindex="0" role="img" aria-roledescription="data point" aria-label="Elementary Students, 1999: 7500.32" visibility="visible" id="point-1-26"/><path class="data-point" data-type="column" fill-opacity="0.9" opacity="0.9" fill="#d95f02" stroke-width="0" stroke-opacity="0" d="M321.9248509133877,443.0796875L331.4224065048712,443.0796875L331.4224065048712,185.21800713164063L321.9248509133877,185.21800713164063Z" transform="translate(0, 0)" tabindex="0" role="img" aria-roledescription="data point" aria-label="Elementary Students, 2000: 7366.08" visibility="visible" id="point-1-27"/><path class="data-point" data-type="column" fill-opacity="0.9" opacity="0.9" fill="#d95f02" stroke-width="0" stroke-opacity="0" d="M333.8293212780555,443.0796875L343.32687686953903,443.0796875L343.32687686953903,187.63903139062495L333.8293212780555,187.63903139062495Z" transform="translate(0, 0)" tabindex="0" role="img" aria-roledescription="data point" aria-label="Elementary Students, 2001: 7296.92" visibility="visible" id="point-1-28"/><path class="data-point" data-type="column" fill-opacity="0.9" opacity="0.9" fill="#d95f02" stroke-width="0" stroke-opacity="0" d="M345.70126576741006,443.0796875L355.1988213588936,443.0796875L355.1988213588936,189.6551688441406L345.70126576741006,189.6551688441406Z" transform="translate(0, 0)" tabindex="0" role="img" aria-roledescription="data point" aria-label="Elementary Students, 2002: 7239.33" visibility="visible" id="point-1-29"/><path class="data-point" data-type="column" fill-opacity="0.9" opacity="0.9" fill="#d95f02" stroke-width="0" stroke-opacity="0" d="M357.5732102567646,443.0796875L367.07076584824813,443.0796875L367.07076584824813,190.08984630078123L357.5732102567646,190.08984630078123Z" transform="translate(0, 0)" tabindex="0" role="img" aria-roledescription="data point" aria-label="Elementary Students, 2003: 7226.91" visibility="visible" id="point-1-30"/><path class="data-point" data-type="column" fill-opacity="0.9" opacity="0.9" fill="#d95f02" stroke-width="0" stroke-opacity="0" d="M369.44515474611916,443.0796875L378.9427103376027,443.0796875L378.9427103376027,190.99921380429686L369.44515474611916,190.99921380429686Z" transform="translate(0, 0)" tabindex="0" role="img" aria-roledescription="data point" aria-label="Elementary Students, 2004: 7200.93" visibility="visible" id="point-1-31"/><path class="data-point" data-type="column" fill-opacity="0.9" opacity="0.9" fill="#d95f02" stroke-width="0" stroke-opacity="0" d="M381.349625110787,443.0796875L390.8471807022705,443.0796875L390.8471807022705,191.12086188046874L381.349625110787,191.12086188046874Z" transform="translate(0, 0)" tabindex="0" role="img" aria-roledescription="data point" aria-label="Elementary Students, 2005: 7197.46" visibility="visible" id="point-1-32"/><path class="data-point" data-type="column" fill-opacity="0.9" opacity="0.9" fill="#d95f02" stroke-width="0" stroke-opacity="0" d="M393.22156960014155,443.0796875L402.7191251916251,443.0796875L402.7191251916251,191.47236355898434L393.22156960014155,191.47236355898434Z" transform="translate(0, 0)" tabindex="0" role="img" aria-roledescription="data point" aria-label="Elementary Students, 2006: 7187.42" visibility="visible" id="point-1-33"/><path class="data-point" data-type="column" fill-opacity="0.9" opacity="0.9" fill="#d95f02" stroke-width="0" stroke-opacity="0" d="M405.093514089496,443.0796875L414.59106968097956,443.0796875L414.59106968097956,193.38173075859373L405.093514089496,193.38173075859373Z" transform="translate(0, 0)" tabindex="0" role="img" aria-roledescription="data point" aria-label="Elementary Students, 2007: 7132.87" visibility="visible" id="point-1-34"/><path class="data-point" data-type="column" fill-opacity="0.9" opacity="0.9" fill="#d95f02" stroke-width="0" stroke-opacity="0" d="M416.9654585788506,443.0796875L426.46301417033413,443.0796875L426.46301417033413,193.77005942304686L416.9654585788506,193.77005942304686Z" transform="translate(0, 0)" tabindex="0" role="img" aria-roledescription="data point" aria-label="Elementary Students, 2008: 7121.78" visibility="visible" id="point-1-35"/><path class="data-point" data-type="column" fill-opacity="0.9" opacity="0.9" fill="#d95f02" stroke-width="0" stroke-opacity="0" d="M428.86992894351835,443.0796875L438.3674845350019,443.0796875L438.3674845350019,195.80657074140626L428.86992894351835,195.80657074140626Z" transform="translate(0, 0)" tabindex="0" role="img" aria-roledescription="data point" aria-label="Elementary Students, 2009: 7063.61" visibility="visible" id="point-1-36"/><path class="data-point" data-type="column" fill-opacity="0.9" opacity="0.9" fill="#d95f02" stroke-width="0" stroke-opacity="0" d="M440.7418734328729,443.0796875L450.23942902435647,443.0796875L450.23942902435647,198.2650871125L440.7418734328729,198.2650871125Z" transform="translate(0, 0)" tabindex="0" role="img" aria-roledescription="data point" aria-label="Elementary Students, 2010: 6993.38" visibility="visible" id="point-1-37"/><path class="data-point" data-type="column" fill-opacity="0.9" opacity="0.9" fill="#d95f02" stroke-width="0" stroke-opacity="0" d="M452.61381792222744,443.0796875L462.111373513711,443.0796875L462.111373513711,201.9787315765625L452.61381792222744,201.9787315765625Z" transform="translate(0, 0)" tabindex="0" role="img" aria-roledescription="data point" aria-label="Elementary Students, 2011: 6887.29" visibility="visible" id="point-1-38"/><path class="data-point" data-type="column" fill-opacity="0.9" opacity="0.9" fill="#d95f02" stroke-width="0" stroke-opacity="0" d="M464.485762411582,443.0796875L473.98331800306556,443.0796875L473.98331800306556,206.27310120195312L464.485762411582,206.27310120195312Z" transform="translate(0, 0)" tabindex="0" role="img" aria-roledescription="data point" aria-label="Elementary Students, 2012: 6764.62" visibility="visible" id="point-1-39"/><path class="data-point" data-type="column" fill-opacity="0.9" opacity="0.9" fill="#d95f02" stroke-width="0" stroke-opacity="0" d="M476.39023277624983,443.0796875L485.8877883677334,443.0796875L485.8877883677334,209.343148578125L476.39023277624983,209.343148578125Z" transform="translate(0, 0)" tabindex="0" role="img" aria-roledescription="data point" aria-label="Elementary Students, 2013: 6676.92" visibility="visible" id="point-1-40"/><path class="data-point" data-type="column" fill-opacity="0.9" opacity="0.9" fill="#d95f02" stroke-width="0" stroke-opacity="0" d="M488.2621772656044,443.0796875L497.75973285708795,443.0796875L497.75973285708795,212.03564933515625L488.2621772656044,212.03564933515625Z" transform="translate(0, 0)" tabindex="0" role="img" aria-roledescription="data point" aria-label="Elementary Students, 2014: 6600.01" visibility="visible" id="point-1-41"/><path class="data-point" data-type="column" fill-opacity="0.9" opacity="0.9" fill="#d95f02" stroke-width="0" stroke-opacity="0" d="M500.13412175495887,443.0796875L509.6316773464424,443.0796875L509.6316773464424,214.0275972L500.13412175495887,214.0275972Z" transform="translate(0, 0)" tabindex="0" role="img" aria-roledescription="data point" aria-label="Elementary Students, 2015: 6543.1" visibility="visible" id="point-1-42"/><path class="data-point" data-type="column" fill-opacity="0.9" opacity="0.9" fill="#d95f02" stroke-width="0" stroke-opacity="0" d="M512.0060662443134,443.0796875L521.5036218357969,443.0796875L521.5036218357969,216.1136079082031L512.0060662443134,216.1136079082031Z" transform="translate(0, 0)" tabindex="0" role="img" aria-roledescription="data point" aria-label="Elementary Students, 2016: 6483.52" visibility="visible" id="point-1-43"/><path class="data-point" data-type="column" fill-opacity="0.9" opacity="0.9" fill="#d95f02" stroke-width="0" stroke-opacity="0" d="M523.9105366089814,443.0796875L533.4080922004649,443.0796875L533.4080922004649,217.33383438046874L523.9105366089814,217.33383438046874Z" transform="translate(0, 0)" tabindex="0" role="img" aria-roledescription="data point" aria-label="Elementary Students, 2017: 6448.66" visibility="visible" id="point-1-44"/><path class="data-point" data-type="column" fill-opacity="0.9" opacity="0.9" fill="#d95f02" stroke-width="0" stroke-opacity="0" d="M535.7824810983358,443.0796875L545.2800366898193,443.0796875L545.2800366898193,218.06165744570313L535.7824810983358,218.06165744570313Z" transform="translate(0, 0)" tabindex="0" role="img" aria-roledescription="data point" aria-label="Elementary Students, 2018: 6427.87" visibility="visible" id="point-1-45"/><path class="data-point" data-type="column" fill-opacity="0.9" opacity="0.9" fill="#d95f02" stroke-width="0" stroke-opacity="0" d="M547.6544255876904,443.0796875L557.151981179174,443.0796875L557.151981179174,220.13814634765623L547.6544255876904,220.13814634765623Z" transform="translate(0, 0)" tabindex="0" role="img" aria-roledescription="data point" aria-label="Elementary Students, 2019: 6368.55" visibility="visible" id="point-1-46"/><path class="data-point" data-type="column" fill-opacity="0.9" opacity="0.9" fill="#d95f02" stroke-width="0" stroke-opacity="0" d="M559.5263700770449,443.0796875L569.0239256685285,443.0796875L569.0239256685285,222.51359196054685L559.5263700770449,222.51359196054685Z" transform="translate(0, 0)" tabindex="0" role="img" aria-roledescription="data point" aria-label="Elementary Students, 2020: 6300.69" visibility="visible" id="point-1-47"/><path class="data-point" data-type="column" fill-opacity="0.9" opacity="0.9" fill="#d95f02" stroke-width="0" stroke-opacity="0" d="M571.4308404417128,443.0796875L580.9283960331963,443.0796875L580.9283960331963,225.21953526757812L571.4308404417128,225.21953526757812Z" transform="translate(0, 0)" tabindex="0" role="img" aria-roledescription="data point" aria-label="Elementary Students, 2021: 6223.4" visibility="visible" id="point-1-48"/><path class="data-point" data-type="column" fill-opacity="0.9" opacity="0.9" fill="#d95f02" stroke-width="0" stroke-opacity="0" d="M583.3027849310672,443.0796875L592.8003405225508,443.0796875L592.8003405225508,227.74316399023434L583.3027849310672,227.74316399023434Z" transform="translate(0, 0)" tabindex="0" role="img" aria-roledescription="data point" aria-label="Elementary Students, 2022: 6151.31" visibility="visible" id="point-1-49"/><path class="data-point" data-type="column" fill-opacity="0.9" opacity="0.9" fill="#d95f02" stroke-width="0" stroke-opacity="0" d="M595.1747294204218,443.0796875L604.6722850119054,443.0796875L604.6722850119054,231.30053881054687L595.1747294204218,231.30053881054687Z" transform="translate(0, 0)" tabindex="0" role="img" aria-roledescription="data point" aria-label="Elementary Students, 2023: 6049.69" visibility="visible" id="point-1-50"/><path class="data-point" data-type="column" fill-opacity="0.9" opacity="0.9" fill="#d95f02" stroke-width="0" stroke-opacity="0" d="M607.0466739097764,443.0796875L616.5442295012599,443.0796875L616.5442295012599,235.07957567929682L607.0466739097764,235.07957567929682Z" transform="translate(0, 0)" tabindex="0" role="img" aria-roledescription="data point" aria-label="Elementary Students, 2024: 5941.73" visibility="visible" id="point-1-51"/></g></g><g id="lines-secondary"><g class="series-secondary"><clipPath id="clip-0-0-secondary"><rect width="614.2314239501953" x="0" y="20.2" height="425.6796875"/></clipPath><path class="outline" opacity="1" pointer-events="none" fill="none" stroke-width="0" transform="translate(90.70690307617187,0)" clip-path="url(#clip-0-0-secondary)" clip-path-id="0-0-secondary" d="M5.936,59.327C9.893,59.234,13.851,59.14,17.808,58.767C21.765,58.393,25.723,57.747,29.68,57.006C33.637,56.266,37.594,55.172,41.552,54.326C45.52,53.478,49.488,52.666,53.456,51.925C57.414,51.187,61.371,50.699,65.328,49.885C69.286,49.072,73.243,47.825,77.2,47.045C81.157,46.264,85.115,45.91,89.072,45.204C93.04,44.497,97.008,43.458,100.977,42.804C104.934,42.152,108.891,41.337,112.849,41.283C116.806,41.23,120.763,41.257,124.72,41.203C128.678,41.15,132.635,40.443,136.592,40.443C140.561,40.443,144.529,40.855,148.497,41.403C152.454,41.95,156.412,43.01,160.369,43.724C164.326,44.437,168.283,45.144,172.241,45.684C176.198,46.224,180.155,46.419,184.113,46.965C188.081,47.512,192.049,48.471,196.017,48.965C199.975,49.457,203.932,49.572,207.889,49.925C211.846,50.279,215.804,50.439,219.761,51.085C223.718,51.732,227.676,52.993,231.633,53.806C235.601,54.621,239.569,55.332,243.537,55.966C247.495,56.599,251.452,56.753,255.409,57.607C259.367,58.46,263.324,60.067,267.281,61.087C271.239,62.107,275.196,62.583,279.153,63.728C283.121,64.875,287.09,66.72,291.058,67.969C295.015,69.213,298.972,69.956,302.93,71.209C306.887,72.463,310.844,74.23,314.802,75.49C318.759,76.75,322.716,77.28,326.674,78.771C330.642,80.265,334.61,82.462,338.578,84.452C342.535,86.436,346.493,88.486,350.45,90.693C354.407,92.9,358.365,95.107,362.322,97.694C366.279,100.281,370.237,102.821,374.194,106.216C378.162,109.62,382.13,114.48,386.098,118.098C390.056,121.706,394.013,125.033,397.97,127.9C401.928,130.767,405.885,132.621,409.842,135.301C413.8,137.982,417.757,141.086,421.714,143.983C425.682,146.887,429.651,149.526,433.619,152.705C437.576,155.875,441.533,159.446,445.491,163.027C449.448,166.607,453.405,170.588,457.363,174.189C461.32,177.789,465.277,180.703,469.235,184.631C473.203,188.569,477.171,193.734,481.139,197.793C485.096,201.841,489.054,205.421,493.011,208.955C496.968,212.489,500.926,215.403,504.883,218.997C508.84,222.591,512.798,227.149,516.755,230.519C520.723,233.899,524.691,236.43,528.659,239.241C532.617,242.044,536.574,244.982,540.531,247.363C544.489,249.743,548.446,251.077,552.403,253.524C556.361,255.971,560.318,259.368,564.275,262.045C568.243,264.73,572.211,267.177,576.18,269.607C580.137,272.03,584.094,274.234,588.052,276.608C592.009,278.982,595.966,281.589,599.924,283.849C603.881,286.11,607.838,288.14,611.795,290.171"/><path class="line" opacity="1" pointer-events="none" fill="none" stroke="#1b9e77" stroke-width="2.8000000000000003" transform="translate(90.70690307617187,0)" clip-path="url(#clip-0-0-secondary)" clip-path-id="0-0-secondary" d="M5.936,59.327C9.893,59.234,13.851,59.14,17.808,58.767C21.765,58.393,25.723,57.747,29.68,57.006C33.637,56.266,37.594,55.172,41.552,54.326C45.52,53.478,49.488,52.666,53.456,51.925C57.414,51.187,61.371,50.699,65.328,49.885C69.286,49.072,73.243,47.825,77.2,47.045C81.157,46.264,85.115,45.91,89.072,45.204C93.04,44.497,97.008,43.458,100.977,42.804C104.934,42.152,108.891,41.337,112.849,41.283C116.806,41.23,120.763,41.257,124.72,41.203C128.678,41.15,132.635,40.443,136.592,40.443C140.561,40.443,144.529,40.855,148.497,41.403C152.454,41.95,156.412,43.01,160.369,43.724C164.326,44.437,168.283,45.144,172.241,45.684C176.198,46.224,180.155,46.419,184.113,46.965C188.081,47.512,192.049,48.471,196.017,48.965C199.975,49.457,203.932,49.572,207.889,49.925C211.846,50.279,215.804,50.439,219.761,51.085C223.718,51.732,227.676,52.993,231.633,53.806C235.601,54.621,239.569,55.332,243.537,55.966C247.495,56.599,251.452,56.753,255.409,57.607C259.367,58.46,263.324,60.067,267.281,61.087C271.239,62.107,275.196,62.583,279.153,63.728C283.121,64.875,287.09,66.72,291.058,67.969C295.015,69.213,298.972,69.956,302.93,71.209C306.887,72.463,310.844,74.23,314.802,75.49C318.759,76.75,322.716,77.28,326.674,78.771C330.642,80.265,334.61,82.462,338.578,84.452C342.535,86.436,346.493,88.486,350.45,90.693C354.407,92.9,358.365,95.107,362.322,97.694C366.279,100.281,370.237,102.821,374.194,106.216C378.162,109.62,382.13,114.48,386.098,118.098C390.056,121.706,394.013,125.033,397.97,127.9C401.928,130.767,405.885,132.621,409.842,135.301C413.8,137.982,417.757,141.086,421.714,143.983C425.682,146.887,429.651,149.526,433.619,152.705C437.576,155.875,441.533,159.446,445.491,163.027C449.448,166.607,453.405,170.588,457.363,174.189C461.32,177.789,465.277,180.703,469.235,184.631C473.203,188.569,477.171,193.734,481.139,197.793C485.096,201.841,489.054,205.421,493.011,208.955C496.968,212.489,500.926,215.403,504.883,218.997C508.84,222.591,512.798,227.149,516.755,230.519C520.723,233.899,524.691,236.43,528.659,239.241C532.617,242.044,536.574,244.982,540.531,247.363C544.489,249.743,548.446,251.077,552.403,253.524C556.361,255.971,560.318,259.368,564.275,262.045C568.243,264.73,572.211,267.177,576.18,269.607C580.137,272.03,584.094,274.234,588.052,276.608C592.009,278.982,595.966,281.589,599.924,283.849C603.881,286.11,607.838,288.14,611.795,290.171"/></g></g><g id="data-points-secondary"><g class="series-secondary" transform="translate(90.70690307617187,0)" clip-path="url(#fl-axes-1-clip-path)"><path class="data-point-secondary" fill="#1b9e77" data-type="point" transform="translate(0, 0)" d="M2.4359722446772674,59.32689107142858A3.5,3.5,0,1,1,9.435972244677266,59.32689107142858A3.5,3.5,0,1,1,2.4359722446772674,59.32689107142858Z" opacity="1" tabindex="0" role="img" aria-roledescription="data point" id="point-0-0-secondary" aria-label="Number of Schools, 1973: 24,592"/><path class="data-point-secondary" fill="#1b9e77" data-type="point" transform="translate(0, 0)" d="M14.3079167340318,58.76678482142859A3.5,3.5,0,1,1,21.3079167340318,58.76678482142859A3.5,3.5,0,1,1,14.3079167340318,58.76678482142859Z" opacity="1" tabindex="0" role="img" aria-roledescription="data point" id="point-0-1-secondary" aria-label="Number of Schools, 1974: 24,606"/><path class="data-point-secondary" fill="#1b9e77" data-type="point" transform="translate(0, 0)" d="M26.179861223386332,57.00645089285716A3.5,3.5,0,1,1,33.17986122338633,57.00645089285716A3.5,3.5,0,1,1,26.179861223386332,57.00645089285716Z" opacity="1" tabindex="0" role="img" aria-roledescription="data point" id="point-0-2-secondary" aria-label="Number of Schools, 1975: 24,650"/><path class="data-point-secondary" fill="#1b9e77" data-type="point" transform="translate(0, 0)" d="M38.051805712740865,54.325942410714305A3.5,3.5,0,1,1,45.051805712740865,54.325942410714305A3.5,3.5,0,1,1,38.051805712740865,54.325942410714305Z" opacity="1" tabindex="0" role="img" aria-roledescription="data point" id="point-0-3-secondary" aria-label="Number of Schools, 1976: 24,717"/><path class="data-point-secondary" fill="#1b9e77" data-type="point" transform="translate(0, 0)" d="M49.9562760774087,51.925487053571416A3.5,3.5,0,1,1,56.9562760774087,51.925487053571416A3.5,3.5,0,1,1,49.9562760774087,51.925487053571416Z" opacity="1" tabindex="0" role="img" aria-roledescription="data point" id="point-0-4-secondary" aria-label="Number of Schools, 1977: 24,777"/><path class="data-point-secondary" fill="#1b9e77" data-type="point" transform="translate(0, 0)" d="M61.828220566763235,49.88509999999998A3.5,3.5,0,1,1,68.82822056676324,49.88509999999998A3.5,3.5,0,1,1,61.828220566763235,49.88509999999998Z" opacity="1" tabindex="0" role="img" aria-roledescription="data point" id="point-0-5-secondary" aria-label="Number of Schools, 1978: 24,828"/><path class="data-point-secondary" fill="#1b9e77" data-type="point" transform="translate(0, 0)" d="M73.70016505611777,47.04456116071427A3.5,3.5,0,1,1,80.70016505611777,47.04456116071427A3.5,3.5,0,1,1,73.70016505611777,47.04456116071427Z" opacity="1" tabindex="0" role="img" aria-roledescription="data point" id="point-0-6-secondary" aria-label="Number of Schools, 1979: 24,899"/><path class="data-point-secondary" fill="#1b9e77" data-type="point" transform="translate(0, 0)" d="M85.5721095454723,45.20421205357141A3.5,3.5,0,1,1,92.5721095454723,45.20421205357141A3.5,3.5,0,1,1,85.5721095454723,45.20421205357141Z" opacity="1" tabindex="0" role="img" aria-roledescription="data point" id="point-0-7-secondary" aria-label="Number of Schools, 1980: 24,945"/><path class="data-point-secondary" fill="#1b9e77" data-type="point" transform="translate(0, 0)" d="M97.47657991014013,42.80375669642858A3.5,3.5,0,1,1,104.47657991014013,42.80375669642858A3.5,3.5,0,1,1,97.47657991014013,42.80375669642858Z" opacity="1" tabindex="0" role="img" aria-roledescription="data point" id="point-0-8-secondary" aria-label="Number of Schools, 1981: 25,005"/><path class="data-point-secondary" fill="#1b9e77" data-type="point" transform="translate(0, 0)" d="M109.34852439949466,41.283468303571425A3.5,3.5,0,1,1,116.34852439949466,41.283468303571425A3.5,3.5,0,1,1,109.34852439949466,41.283468303571425Z" opacity="1" tabindex="0" role="img" aria-roledescription="data point" id="point-0-9-secondary" aria-label="Number of Schools, 1982: 25,043"/><path class="data-point-secondary" fill="#1b9e77" data-type="point" transform="translate(0, 0)" d="M121.22046888884921,41.203453124999996A3.5,3.5,0,1,1,128.2204688888492,41.203453124999996A3.5,3.5,0,1,1,121.22046888884921,41.203453124999996Z" opacity="1" tabindex="0" role="img" aria-roledescription="data point" id="point-0-10-secondary" aria-label="Number of Schools, 1983: 25,045"/><path class="data-point-secondary" fill="#1b9e77" data-type="point" transform="translate(0, 0)" d="M133.09241337820373,40.443308928571426A3.5,3.5,0,1,1,140.09241337820373,40.443308928571426A3.5,3.5,0,1,1,133.09241337820373,40.443308928571426Z" opacity="1" tabindex="0" role="img" aria-roledescription="data point" id="point-0-11-secondary" aria-label="Number of Schools, 1984: 25,064"/><path class="data-point-secondary" fill="#1b9e77" data-type="point" transform="translate(0, 0)" d="M144.99688374287157,41.40349107142859A3.5,3.5,0,1,1,151.99688374287157,41.40349107142859A3.5,3.5,0,1,1,144.99688374287157,41.40349107142859Z" opacity="1" tabindex="0" role="img" aria-roledescription="data point" id="point-0-12-secondary" aria-label="Number of Schools, 1985: 25,040"/><path class="data-point-secondary" fill="#1b9e77" data-type="point" transform="translate(0, 0)" d="M156.8688282322261,43.72393125A3.5,3.5,0,1,1,163.8688282322261,43.72393125A3.5,3.5,0,1,1,156.8688282322261,43.72393125Z" opacity="1" tabindex="0" role="img" aria-roledescription="data point" id="point-0-13-secondary" aria-label="Number of Schools, 1986: 24,982"/><path class="data-point-secondary" fill="#1b9e77" data-type="point" transform="translate(0, 0)" d="M168.74077272158064,45.68430312500002A3.5,3.5,0,1,1,175.74077272158064,45.68430312500002A3.5,3.5,0,1,1,168.74077272158064,45.68430312500002Z" opacity="1" tabindex="0" role="img" aria-roledescription="data point" id="point-0-14-secondary" aria-label="Number of Schools, 1987: 24,933"/><path class="data-point-secondary" fill="#1b9e77" data-type="point" transform="translate(0, 0)" d="M180.61271721093513,46.96454598214284A3.5,3.5,0,1,1,187.61271721093513,46.96454598214284A3.5,3.5,0,1,1,180.61271721093513,46.96454598214284Z" opacity="1" tabindex="0" role="img" aria-roledescription="data point" id="point-0-15-secondary" aria-label="Number of Schools, 1988: 24,901"/><path class="data-point-secondary" fill="#1b9e77" data-type="point" transform="translate(0, 0)" d="M192.517187575603,48.96492544642855A3.5,3.5,0,1,1,199.517187575603,48.96492544642855A3.5,3.5,0,1,1,192.517187575603,48.96492544642855Z" opacity="1" tabindex="0" role="img" aria-roledescription="data point" id="point-0-16-secondary" aria-label="Number of Schools, 1989: 24,851"/><path class="data-point-secondary" fill="#1b9e77" data-type="point" transform="translate(0, 0)" d="M204.38913206495752,49.925107589285716A3.5,3.5,0,1,1,211.38913206495752,49.925107589285716A3.5,3.5,0,1,1,204.38913206495752,49.925107589285716Z" opacity="1" tabindex="0" role="img" aria-roledescription="data point" id="point-0-17-secondary" aria-label="Number of Schools, 1990: 24,827"/><path class="data-point-secondary" fill="#1b9e77" data-type="point" transform="translate(0, 0)" d="M216.26107655431207,51.08532767857142A3.5,3.5,0,1,1,223.26107655431207,51.08532767857142A3.5,3.5,0,1,1,216.26107655431207,51.08532767857142Z" opacity="1" tabindex="0" role="img" aria-roledescription="data point" id="point-0-18-secondary" aria-label="Number of Schools, 1991: 24,798"/><path class="data-point-secondary" fill="#1b9e77" data-type="point" transform="translate(0, 0)" d="M228.13302104366662,53.80584375000001A3.5,3.5,0,1,1,235.13302104366662,53.80584375000001A3.5,3.5,0,1,1,228.13302104366662,53.80584375000001Z" opacity="1" tabindex="0" role="img" aria-roledescription="data point" id="point-0-19-secondary" aria-label="Number of Schools, 1992: 24,730"/><path class="data-point-secondary" fill="#1b9e77" data-type="point" transform="translate(0, 0)" d="M240.03749140833443,55.96625357142857A3.5,3.5,0,1,1,247.03749140833443,55.96625357142857A3.5,3.5,0,1,1,240.03749140833443,55.96625357142857Z" opacity="1" tabindex="0" role="img" aria-roledescription="data point" id="point-0-20-secondary" aria-label="Number of Schools, 1993: 24,676"/><path class="data-point-secondary" fill="#1b9e77" data-type="point" transform="translate(0, 0)" d="M251.90943589768895,57.60656473214283A3.5,3.5,0,1,1,258.9094358976889,57.60656473214283A3.5,3.5,0,1,1,251.90943589768895,57.60656473214283Z" opacity="1" tabindex="0" role="img" aria-roledescription="data point" id="point-0-21-secondary" aria-label="Number of Schools, 1994: 24,635"/><path class="data-point-secondary" fill="#1b9e77" data-type="point" transform="translate(0, 0)" d="M263.7813803870435,61.087225000000004A3.5,3.5,0,1,1,270.7813803870435,61.087225000000004A3.5,3.5,0,1,1,263.7813803870435,61.087225000000004Z" opacity="1" tabindex="0" role="img" aria-roledescription="data point" id="point-0-22-secondary" aria-label="Number of Schools, 1995: 24,548"/><path class="data-point-secondary" fill="#1b9e77" data-type="point" transform="translate(0, 0)" d="M275.653324876398,63.72772589285712A3.5,3.5,0,1,1,282.653324876398,63.72772589285712A3.5,3.5,0,1,1,275.653324876398,63.72772589285712Z" opacity="1" tabindex="0" role="img" aria-roledescription="data point" id="point-0-23-secondary" aria-label="Number of Schools, 1996: 24,482"/><path class="data-point-secondary" fill="#1b9e77" data-type="point" transform="translate(0, 0)" d="M287.5577952410659,67.96853035714287A3.5,3.5,0,1,1,294.5577952410659,67.96853035714287A3.5,3.5,0,1,1,287.5577952410659,67.96853035714287Z" opacity="1" tabindex="0" role="img" aria-roledescription="data point" id="point-0-24-secondary" aria-label="Number of Schools, 1997: 24,376"/><path class="data-point-secondary" fill="#1b9e77" data-type="point" transform="translate(0, 0)" d="M299.4297397304204,71.2091450892857A3.5,3.5,0,1,1,306.4297397304204,71.2091450892857A3.5,3.5,0,1,1,299.4297397304204,71.2091450892857Z" opacity="1" tabindex="0" role="img" aria-roledescription="data point" id="point-0-25-secondary" aria-label="Number of Schools, 1998: 24,295"/><path class="data-point-secondary" fill="#1b9e77" data-type="point" transform="translate(0, 0)" d="M311.3016842197749,75.48995714285712A3.5,3.5,0,1,1,318.3016842197749,75.48995714285712A3.5,3.5,0,1,1,311.3016842197749,75.48995714285712Z" opacity="1" tabindex="0" role="img" aria-roledescription="data point" id="point-0-26-secondary" aria-label="Number of Schools, 1999: 24,188"/><path class="data-point-secondary" fill="#1b9e77" data-type="point" transform="translate(0, 0)" d="M323.17362870912945,78.7705794642857A3.5,3.5,0,1,1,330.17362870912945,78.7705794642857A3.5,3.5,0,1,1,323.17362870912945,78.7705794642857Z" opacity="1" tabindex="0" role="img" aria-roledescription="data point" id="point-0-27-secondary" aria-label="Number of Schools, 2000: 24,106"/><path class="data-point-secondary" fill="#1b9e77" data-type="point" transform="translate(0, 0)" d="M335.07809907379726,84.45165714285713A3.5,3.5,0,1,1,342.07809907379726,84.45165714285713A3.5,3.5,0,1,1,335.07809907379726,84.45165714285713Z" opacity="1" tabindex="0" role="img" aria-roledescription="data point" id="point-0-28-secondary" aria-label="Number of Schools, 2001: 23,964"/><path class="data-point-secondary" fill="#1b9e77" data-type="point" transform="translate(0, 0)" d="M346.95004356315184,90.69284107142857A3.5,3.5,0,1,1,353.95004356315184,90.69284107142857A3.5,3.5,0,1,1,346.95004356315184,90.69284107142857Z" opacity="1" tabindex="0" role="img" aria-roledescription="data point" id="point-0-29-secondary" aria-label="Number of Schools, 2002: 23,808"/><path class="data-point-secondary" fill="#1b9e77" data-type="point" transform="translate(0, 0)" d="M358.82198805250636,97.69416919642859A3.5,3.5,0,1,1,365.82198805250636,97.69416919642859A3.5,3.5,0,1,1,358.82198805250636,97.69416919642859Z" opacity="1" tabindex="0" role="img" aria-roledescription="data point" id="point-0-30-secondary" aria-label="Number of Schools, 2003: 23,633"/><path class="data-point-secondary" fill="#1b9e77" data-type="point" transform="translate(0, 0)" d="M370.69393254186093,106.21578571428572A3.5,3.5,0,1,1,377.69393254186093,106.21578571428572A3.5,3.5,0,1,1,370.69393254186093,106.21578571428572Z" opacity="1" tabindex="0" role="img" aria-roledescription="data point" id="point-0-31-secondary" aria-label="Number of Schools, 2004: 23,420"/><path class="data-point-secondary" fill="#1b9e77" data-type="point" transform="translate(0, 0)" d="M382.59840290652875,118.09803973214284A3.5,3.5,0,1,1,389.59840290652875,118.09803973214284A3.5,3.5,0,1,1,382.59840290652875,118.09803973214284Z" opacity="1" tabindex="0" role="img" aria-roledescription="data point" id="point-0-32-secondary" aria-label="Number of Schools, 2005: 23,123"/><path class="data-point-secondary" fill="#1b9e77" data-type="point" transform="translate(0, 0)" d="M394.4703473958833,127.89989910714283A3.5,3.5,0,1,1,401.4703473958833,127.89989910714283A3.5,3.5,0,1,1,394.4703473958833,127.89989910714283Z" opacity="1" tabindex="0" role="img" aria-roledescription="data point" id="point-0-33-secondary" aria-label="Number of Schools, 2006: 22,878"/><path class="data-point-secondary" fill="#1b9e77" data-type="point" transform="translate(0, 0)" d="M406.3422918852378,135.30130312499998A3.5,3.5,0,1,1,413.3422918852378,135.30130312499998A3.5,3.5,0,1,1,406.3422918852378,135.30130312499998Z" opacity="1" tabindex="0" role="img" aria-roledescription="data point" id="point-0-34-secondary" aria-label="Number of Schools, 2007: 22,693"/><path class="data-point-secondary" fill="#1b9e77" data-type="point" transform="translate(0, 0)" d="M418.21423637459236,143.98295000000002A3.5,3.5,0,1,1,425.21423637459236,143.98295000000002A3.5,3.5,0,1,1,418.21423637459236,143.98295000000002Z" opacity="1" tabindex="0" role="img" aria-roledescription="data point" id="point-0-35-secondary" aria-label="Number of Schools, 2008: 22,476"/><path class="data-point-secondary" fill="#1b9e77" data-type="point" transform="translate(0, 0)" d="M430.1187067392601,152.70460446428572A3.5,3.5,0,1,1,437.1187067392601,152.70460446428572A3.5,3.5,0,1,1,430.1187067392601,152.70460446428572Z" opacity="1" tabindex="0" role="img" aria-roledescription="data point" id="point-0-36-secondary" aria-label="Number of Schools, 2009: 22,258"/><path class="data-point-secondary" fill="#1b9e77" data-type="point" transform="translate(0, 0)" d="M441.9906512286147,163.0265625A3.5,3.5,0,1,1,448.9906512286147,163.0265625A3.5,3.5,0,1,1,441.9906512286147,163.0265625Z" opacity="1" tabindex="0" role="img" aria-roledescription="data point" id="point-0-37-secondary" aria-label="Number of Schools, 2010: 22,000"/><path class="data-point-secondary" fill="#1b9e77" data-type="point" transform="translate(0, 0)" d="M453.8625957179692,174.18867991071428A3.5,3.5,0,1,1,460.8625957179692,174.18867991071428A3.5,3.5,0,1,1,453.8625957179692,174.18867991071428Z" opacity="1" tabindex="0" role="img" aria-roledescription="data point" id="point-0-38-secondary" aria-label="Number of Schools, 2011: 21,721"/><path class="data-point-secondary" fill="#1b9e77" data-type="point" transform="translate(0, 0)" d="M465.7345402073238,184.63066071428568A3.5,3.5,0,1,1,472.7345402073238,184.63066071428568A3.5,3.5,0,1,1,465.7345402073238,184.63066071428568Z" opacity="1" tabindex="0" role="img" aria-roledescription="data point" id="point-0-39-secondary" aria-label="Number of Schools, 2012: 21,460"/><path class="data-point-secondary" fill="#1b9e77" data-type="point" transform="translate(0, 0)" d="M477.6390105719916,197.7931575892857A3.5,3.5,0,1,1,484.6390105719916,197.7931575892857A3.5,3.5,0,1,1,477.6390105719916,197.7931575892857Z" opacity="1" tabindex="0" role="img" aria-roledescription="data point" id="point-0-40-secondary" aria-label="Number of Schools, 2013: 21,131"/><path class="data-point-secondary" fill="#1b9e77" data-type="point" transform="translate(0, 0)" d="M489.5109550613462,208.955275A3.5,3.5,0,1,1,496.5109550613462,208.955275A3.5,3.5,0,1,1,489.5109550613462,208.955275Z" opacity="1" tabindex="0" role="img" aria-roledescription="data point" id="point-0-41-secondary" aria-label="Number of Schools, 2014: 20,852"/><path class="data-point-secondary" fill="#1b9e77" data-type="point" transform="translate(0, 0)" d="M501.38289955070064,218.99717991071427A3.5,3.5,0,1,1,508.38289955070064,218.99717991071427A3.5,3.5,0,1,1,501.38289955070064,218.99717991071427Z" opacity="1" tabindex="0" role="img" aria-roledescription="data point" id="point-0-42-secondary" aria-label="Number of Schools, 2015: 20,601"/><path class="data-point-secondary" fill="#1b9e77" data-type="point" transform="translate(0, 0)" d="M513.2548440400551,230.51936562499998A3.5,3.5,0,1,1,520.2548440400551,230.51936562499998A3.5,3.5,0,1,1,513.2548440400551,230.51936562499998Z" opacity="1" tabindex="0" role="img" aria-roledescription="data point" id="point-0-43-secondary" aria-label="Number of Schools, 2016: 20,313"/><path class="data-point-secondary" fill="#1b9e77" data-type="point" transform="translate(0, 0)" d="M525.1593144047231,239.2410200892857A3.5,3.5,0,1,1,532.1593144047231,239.2410200892857A3.5,3.5,0,1,1,525.1593144047231,239.2410200892857Z" opacity="1" tabindex="0" role="img" aria-roledescription="data point" id="point-0-44-secondary" aria-label="Number of Schools, 2017: 20,095"/><path class="data-point-secondary" fill="#1b9e77" data-type="point" transform="translate(0, 0)" d="M537.0312588940775,247.36256071428573A3.5,3.5,0,1,1,544.0312588940775,247.36256071428573A3.5,3.5,0,1,1,537.0312588940775,247.36256071428573Z" opacity="1" tabindex="0" role="img" aria-roledescription="data point" id="point-0-45-secondary" aria-label="Number of Schools, 2018: 19,892"/><path class="data-point-secondary" fill="#1b9e77" data-type="point" transform="translate(0, 0)" d="M548.9032033834321,253.5237294642857A3.5,3.5,0,1,1,555.9032033834321,253.5237294642857A3.5,3.5,0,1,1,548.9032033834321,253.5237294642857Z" opacity="1" tabindex="0" role="img" aria-roledescription="data point" id="point-0-46-secondary" aria-label="Number of Schools, 2019: 19,738"/><path class="data-point-secondary" fill="#1b9e77" data-type="point" transform="translate(0, 0)" d="M560.7751478727866,262.0453459821428A3.5,3.5,0,1,1,567.7751478727866,262.0453459821428A3.5,3.5,0,1,1,560.7751478727866,262.0453459821428Z" opacity="1" tabindex="0" role="img" aria-roledescription="data point" id="point-0-47-secondary" aria-label="Number of Schools, 2020: 19,525"/><path class="data-point-secondary" fill="#1b9e77" data-type="point" transform="translate(0, 0)" d="M572.6796182374545,269.60678035714284A3.5,3.5,0,1,1,579.6796182374545,269.60678035714284A3.5,3.5,0,1,1,572.6796182374545,269.60678035714284Z" opacity="1" tabindex="0" role="img" aria-roledescription="data point" id="point-0-48-secondary" aria-label="Number of Schools, 2021: 19,336"/><path class="data-point-secondary" fill="#1b9e77" data-type="point" transform="translate(0, 0)" d="M584.5515627268089,276.6081084821428A3.5,3.5,0,1,1,591.5515627268089,276.6081084821428A3.5,3.5,0,1,1,584.5515627268089,276.6081084821428Z" opacity="1" tabindex="0" role="img" aria-roledescription="data point" id="point-0-49-secondary" aria-label="Number of Schools, 2022: 19,161"/><path class="data-point-secondary" fill="#1b9e77" data-type="point" transform="translate(0, 0)" d="M596.4235072161636,283.84948214285714A3.5,3.5,0,1,1,603.4235072161636,283.84948214285714A3.5,3.5,0,1,1,596.4235072161636,283.84948214285714Z" opacity="1" tabindex="0" role="img" aria-roledescription="data point" id="point-0-50-secondary" aria-label="Number of Schools, 2023: 18,980"/><path class="data-point-secondary" fill="#1b9e77" data-type="point" transform="translate(0, 0)" d="M608.2954517055181,290.17068125000003A3.5,3.5,0,1,1,615.2954517055181,290.17068125000003A3.5,3.5,0,1,1,608.2954517055181,290.17068125000003Z" opacity="1" tabindex="0" role="img" aria-roledescription="data point" id="point-0-51-secondary" aria-label="Number of Schools, 2024: 18,822"/></g></g><g id="data-point-labels"><g class="series" transform="translate(90.70690307617187,0)" clip-path="url(#fl-axes-1-clip-path)"/><g class="series" transform="translate(90.70690307617187,0)" clip-path="url(#fl-axes-1-clip-path)"/></g><g id="stack-labels"/><g class="annotations above"><g id="axes-highlights"><g class="axis-highlights-facet"><defs><pattern class="fl-pattern-auto" width="4" height="4" patternUnits="userSpaceOnUse" id="fl-pattern-diagonal-x"><path stroke-width="1" shape-rendering="auto" stroke-linecap="square" d="M 0 4 l 4 -4 M -1 1 l 2 -2 M 3 5 l 2 -2" style="stroke: currentcolor;"/></pattern><pattern class="fl-pattern-auto" width="4" height="4" patternUnits="userSpaceOnUse" id="fl-pattern-dots-x"><path stroke-width="1" shape-rendering="auto" stroke-linecap="square" d="M 1 2 A 1.2 1.2 0 1 1 1 2.1 Z" style="fill: currentcolor;"/></pattern><pattern class="fl-pattern-auto" width="4" height="4" patternUnits="userSpaceOnUse" id="fl-pattern-grid-x"><path stroke-width="1" shape-rendering="auto" stroke-linecap="square" d="M 2 0 l 0 4 M 0 2 l 4 0" style="stroke: currentcolor;"/></pattern><pattern class="fl-pattern-auto" width="4" height="4" patternUnits="userSpaceOnUse" id="fl-pattern-diagonal-y"><path stroke-width="1" shape-rendering="auto" stroke-linecap="square" d="M 0 4 l 4 -4 M -1 1 l 2 -2 M 3 5 l 2 -2" style="stroke: currentcolor;"/></pattern><pattern class="fl-pattern-auto" width="4" height="4" patternUnits="userSpaceOnUse" id="fl-pattern-grid-y"><path stroke-width="1" shape-rendering="auto" stroke-linecap="square" d="M 2 0 l 0 4 M 0 2 l 4 0" style="stroke: currentcolor;"/></pattern><pattern class="fl-pattern-auto" width="4" height="4" patternUnits="userSpaceOnUse" id="fl-pattern-dots-y"><path stroke-width="1" shape-rendering="auto" stroke-linecap="square" d="M 1 2 A 1.2 1.2 0 1 1 1 2.1 Z" style="fill: currentcolor;"/></pattern></defs><g class="axis-highlights" transform="translate(90.70690155029297, 0)" style="opacity: 1;"/></g></g></g></svg><svg xmlns="http://www.w3.org/2000/svg" id="fl-layout-svg-screenshot-container" class="flourish-screenshot-svg-container" style="left: 0px; top: 0px; width: 794px; height: 622px; position: absolute;" x="0" y="0"><text x="0px" y="0px" font-family="&quot;Noto Sans JP&quot;" font-size="21px" font-weight="700" fill="rgb(34, 34, 34)" style="dominant-baseline: text-before-edge;"><tspan dy="0" dx="0" x="0" opacity="1">Japans Elementary Schools and Students</tspan></text><text x="0px" y="25.1953125px" font-family="&quot;Noto Sans JP&quot;" font-size="17.5px" font-weight="700" fill="rgb(34, 34, 34)" style="dominant-baseline: text-before-edge;"><tspan dy="0" dx="0" x="0" opacity="1"/></text><text x="0px" y="25.1953125px" font-family="&quot;Noto Sans JP&quot;" font-size="16.8px" font-weight="400" fill="rgb(34, 34, 34)" style="dominant-baseline: text-before-edge;"><tspan dy="0" dx="0" x="0" opacity="1"/></text><text x="0px" y="602px" font-family="&quot;Noto Sans JP&quot;" font-size="14px" font-weight="400" fill="rgb(119, 119, 119)" style="dominant-baseline: text-before-edge;"><tspan dy="0" dx="0" x="0" opacity="1">Source: Ministry of Education, Culture, Sports, Science and Technology, Japan</tspan></text></svg><svg xmlns="http://www.w3.org/2000/svg" id="fl-legend-discrete-color-0-svg-screenshot-container" class="flourish-screenshot-svg-container" style="left: 0px; top: 0px; width: 794px; height: 622px; position: absolute;" x="0" y="0"><text x="0px" y="0px" font-family="&quot;Noto Sans JP&quot;" font-size="15.75px" font-weight="700" fill="rgb(34, 34, 34)" style="dominant-baseline: text-before-edge;"><tspan dy="0" dx="0" x="0" opacity="1"/></text><rect x="215.34375" y="39.1953125" width="15.75px" height="15.75px" rx="0" ry="0" opacity="1" fill="rgb(27, 158, 119)" stroke="rgb(34,34,34)" stroke-width="0px"/><rect x="386.4921875" y="39.1953125" width="15.75px" height="15.75px" rx="0" ry="0" opacity="1" fill="rgb(217, 95, 2)" stroke="rgb(34,34,34)" stroke-width="0px"/><text x="231.09375px" y="39.1953125px" font-family="&quot;Noto Sans JP&quot;" font-size="15.75px" font-weight="400" fill="rgb(34, 34, 34)" style="dominant-baseline: text-before-edge;"><tspan dy="0" dx="3.15" x="231.09375" opacity="1">Number of Schools</tspan></text><text x="402.2421875px" y="39.1953125px" font-family="&quot;Noto Sans JP&quot;" font-size="15.75px" font-weight="400" fill="rgb(34, 34, 34)" style="dominant-baseline: text-before-edge;"><tspan dy="0" dx="3.15" x="402.2421875" opacity="1">Elementary Students</tspan></text></svg></svg>